# xmcd CD database file
# Copyright (C) 1993-1998 Ti Kan
# 
# Track frame offsets:
#	182
#	17892
#	37660
#	48105
#	75005
#	89182
#	119097
#	135660
#	166720
#	179597
#	199777
#	215302
#	232340
#	245297
#
# Disc length: 3589 seconds
# 
# Revision: 8
# Processed by: cddbd v1.4b41PL1 Copyright (c) Steve Scherf et al.
# Submitted via: DiscPlay 4.0.4
# 
DISCID=b60e030e
DTITLE=Jewel - Pieces Of You
DYEAR=1900
DGENRE=
TTITLE0=Who Will Save Your Soul
TTITLE1=Pieces Of You
TTITLE2=Little Sister
TTITLE3=Foolish Games
TTITLE4=Near You Always
TTITLE5=Painters
TTITLE6=Morning Song
TTITLE7=Adrian
TTITLE8=I'm Sensitive
TTITLE9=You Were Meant For Me
TTITLE10=Don't
TTITLE11=Daddy
TTITLE12=Angel Standing By
TTITLE13=Amen
EXTD=
EXTT0=
EXTT1=
EXTT2=
EXTT3=
EXTT4=
EXTT5=
EXTT6=
EXTT7=
EXTT8=
EXTT9=
EXTT10=
EXTT11=
EXTT12=
EXTT13=
PLAYORDER=
